# xmcd
#
# Track frame offsets: 
#        150
#        12448
#        29996
#        41905
#        56867
#        66550
#        76504
#        91943
#        103868
#        117583
#        131841
#        146938
#
# Disc length: 2139 seconds
#
# Revision: 1
# Processed by: cddbd v1.5.2PL0 Copyright (c) Steve Scherf et al.
# Submitted via: ExactAudioCopy v1.0b4
#
DISCID=bc08590c
DTITLE=刘文正 - 兰花草
DYEAR=1979
DGENRE=Pop
TTITLE0=让我们看云去
TTITLE1=兰花草
TTITLE2=黄色的玫瑰
TTITLE3=小雨中的回忆
TTITLE4=心恋
TTITLE5=寻梦园
TTITLE6=雨中即景
TTITLE7=我的心里没有他
TTITLE8=爱是你爱是我
TTITLE9=钻石
TTITLE10=夜归人
TTITLE11=大江东去
EXTD=
EXTT0=
EXTT1=
EXTT2=
EXTT3=
EXTT4=
EXTT5=
EXTT6=
EXTT7=
EXTT8=
EXTT9=
EXTT10=
EXTT11=
PLAYORDER=
